<svg id="Layer_3" enable-background="new 0 0 64 64" height="512" viewBox="0 0 64 64" width="512" xmlns="http://www.w3.org/2000/svg"><g><path d="m52 62v-15.569c0-2.634-1.718-4.96-4.235-5.735l-8.765-2.696h-14l-8.765 2.697c-2.517.774-4.235 3.1-4.235 5.734v15.569" fill="#f9d18b"/><path d="m45 60h7v2h-7z" fill="#efbe9a"/><path d="m12 60h7v2h-7z" fill="#efbe9a"/><path d="m28 48 4-4 4 4 5.182-9.328-2.182-.672h-14l-2.182.672z" fill="#f5b953"/><path d="m27 39 5 5 5-5" fill="#efbe9a"/><path d="m45 56h7v4h-7z" fill="#f5b953"/><path d="m10 56h9v4h-9z" fill="#f5b953"/><path d="m45 39.846-4-1.231v15.385h-18v-15.385l-4 1.231v22.154h26z" fill="#3d98f7"/><path d="m41 46h4v4h-4z" fill="#8bd2f5"/><path d="m19 46h4v4h-4z" fill="#8bd2f5"/><path d="m47 12v-4c0-3.314-2.686-6-6-6h-18c-3.314 0-6 2.686-6 6v4" fill="#f9d18b"/><path d="m50 12h-36c-1.105 0-2 .895-2 2v2h40v-2c0-1.105-.895-2-2-2z" fill="#f5b953"/><path d="m19 21h-2v-5h6v1c0 2.209-1.791 4-4 4z" fill="#976947"/><path d="m45 21h2v-5h-6v1c0 2.209 1.791 4 4 4z" fill="#976947"/><path d="m19 21c-2.209 0-4 1.791-4 4 0 2.209 1.791 4 4 4" fill="#db9b7c"/><path d="m45 21c2.209 0 4 1.791 4 4 0 2.209-1.791 4-4 4" fill="#db9b7c"/><path d="m41 16v1c0 2.209 1.791 4 4 4v6c0 7.18-5.82 13-13 13-7.18 0-13-5.82-13-13v-6c2.209 0 4-1.791 4-4v-1" fill="#efbe9a"/><circle cx="38" cy="23" fill="#ebf7fe" r="4"/><circle cx="26" cy="23" fill="#ebf7fe" r="4"/><g><path d="m31 25h2v4h-2z" fill="#db9b7c"/></g><g><path d="m30 22h4v2h-4z" fill="#8892a0"/></g><g><path d="m24 22h4v2h-4z" fill="#8892a0"/></g><g><path d="m36 22h4v2h-4z" fill="#8892a0"/></g><g><path d="m32 37c-3.859 0-7-3.14-7-7h2c0 2.757 2.243 5 5 5s5-2.243 5-5h2c0 3.86-3.141 7-7 7z" fill="#db9b7c"/></g><g><path d="m22 57h20v2h-20z" fill="#fff"/></g><path d="m58 50v-11h-4v11" fill="#c18e59"/><g><path d="m57 39h-2v-6c0-.552.448-1 1-1 2.757 0 5-2.243 5-5s-2.243-5-5-5-5 2.243-5 5c0 1.232.452 2.416 1.273 3.333l-1.49 1.334c-1.15-1.285-1.783-2.942-1.783-4.667 0-3.86 3.14-7 7-7s7 3.14 7 7c0 3.521-2.612 6.442-6 6.929z" fill="#8892a0"/></g><g><path d="m5.072 35.371-.661-1.652c-.801-2.001-2.172-3.691-3.965-4.887l1.109-1.664c2.131 1.421 3.761 3.43 4.713 5.808l.661 1.653z" fill="#f9d18b"/></g><g><path d="m5.072 41.371-.661-1.652c-.801-2.001-2.172-3.691-3.965-4.887l1.109-1.664c2.132 1.421 3.761 3.43 4.713 5.809l.661 1.652z" fill="#f5b953"/></g><g><path d="m5.072 47.371-.661-1.652c-.801-2.001-2.172-3.691-3.965-4.887l1.109-1.664c2.132 1.421 3.761 3.43 4.713 5.809l.661 1.652z" fill="#f9d18b"/></g><g><path d="m6.928 35.371-1.856-.742.661-1.653c.951-2.378 2.581-4.387 4.712-5.808l1.109 1.664c-1.793 1.196-3.165 2.886-3.965 4.887z" fill="#f5b953"/></g><g><path d="m6.928 41.371-1.856-.742.661-1.652c.951-2.379 2.581-4.388 4.712-5.809l1.109 1.664c-1.793 1.195-3.165 2.886-3.965 4.887z" fill="#f9d18b"/></g><g><path d="m6.928 47.371-1.856-.742.661-1.652c.951-2.379 2.581-4.388 4.712-5.809l1.109 1.664c-1.793 1.195-3.165 2.886-3.965 4.887z" fill="#f5b953"/></g><path d="m54 61h-1c-1.105 0-2-.895-2-2v-13h2c1.105 0 2 .895 2 2v13" fill="#db9b7c"/><path d="m55 53c-.552 0-1-.448-1-1v-1c0-.552.448-1 1-1h6c1.105 0 2 .895 2 2v8c0 1.105-.895 2-2 2h-6c-.552 0-1-.448-1-1v-1c0-.552.448-1 1-1-.552 0-1-.448-1-1v-1c0-.552.448-1 1-1-.552 0-1-.448-1-1v-1c0-.552.448-1 1-1z" fill="#efbe9a"/><g><path d="m55 52h4v2h-4z" fill="#db9b7c"/></g><g><path d="m55 55h4v2h-4z" fill="#db9b7c"/></g><g><path d="m55 58h4v2h-4z" fill="#db9b7c"/></g><path d="m10 61h1c1.105 0 2-.895 2-2v-13h-2c-1.105 0-2 .895-2 2v13" fill="#db9b7c"/><path d="m9 53c.552 0 1-.448 1-1v-1c0-.552-.448-1-1-1h-6c-1.105 0-2 .895-2 2v8c0 1.105.895 2 2 2h6c.552 0 1-.448 1-1v-1c0-.552-.448-1-1-1 .552 0 1-.448 1-1v-1c0-.552-.448-1-1-1 .552 0 1-.448 1-1v-1c0-.552-.448-1-1-1z" fill="#efbe9a"/><g><path d="m5 52h4v2h-4z" fill="#db9b7c"/></g><g><path d="m5 55h4v2h-4z" fill="#db9b7c"/></g><g><path d="m5 58h4v2h-4z" fill="#db9b7c"/></g><g><path d="m5 27h2v23h-2z" fill="#c18e59"/></g></g></svg>