<svg width="512" height="512.00001" xmlns="http://www.w3.org/2000/svg">

 <g>
  <title>background</title>
  <rect fill="none" id="canvas_background" height="514.00001" width="514" y="-1" x="-1"/>
 </g>
 <g>
  <title>Layer 1</title>
  <path stroke="null" id="svg_2" fill="#fff" d="m2.53906,173.403706c0,82.899891 48.619881,154.443229 118.893565,187.679529c28.220098,13.350596 46.322069,41.656357 46.322069,72.875265l0,44.514987c0,16.925817 21.871929,23.671235 31.398071,9.689711l49.157309,-72.09636c15.001905,-21.996556 39.903811,-35.160232 66.527116,-35.160232c39.592245,-75.772838 -186.550115,-234.476734 -186.550115,-349.078485l-125.748015,141.575585z"/>
  <path stroke="null" id="svg_3" fill="#f2f2f2" d="m191.45561,379.456696c-67.341108,-31.849314 -113.93201,-100.407072 -113.93201,-179.847463c0,-109.819299 89.024304,-198.843603 198.843603,-198.843603l-75.98454,0c-109.81928,0 -198.843603,89.024304 -198.843603,198.843603c0,79.440391 46.58345,147.99815 113.924558,179.847463c27.049896,12.793461 44.389,39.917993 44.389,69.834103l0,42.657329c0,16.219485 20.959191,22.683409 30.095248,9.285349l44.642775,-65.48254c-4.359034,-24.36282 -20.250108,-45.471302 -43.135032,-56.294241zm0,0"/>
 </g>
</svg>