<svg xmlns="http://www.w3.org/2000/svg" height="511.99998pt" version="1.1" viewBox="1 1 511.99998 511.99998" width="511.99998pt">
<g id="surface1">
<path d="M 512 256 C 512 330.011719 480.601562 396.675781 430.382812 443.414062 C 389.894531 481.113281 337.179688 505.835938 278.832031 510.996094 C 271.308594 511.664062 263.691406 512 256 512 C 248.300781 512 240.683594 511.65625 233.148438 510.988281 C 174.8125 505.835938 122.097656 481.101562 81.605469 443.402344 C 31.398438 396.664062 0 330 0 256 C 0 114.613281 114.613281 0 256 0 C 397.386719 0 512 114.613281 512 256 Z M 512 256 " style=" stroke:none;fill-rule:nonzero;fill:rgb(10.588235%,68.235294%,55.686275%);fill-opacity:1;" />
<path d="M 430.382812 443.414062 C 384.667969 485.972656 323.386719 512 256 512 C 188.613281 512 127.320312 485.972656 81.605469 443.402344 L 123.234375 385.703125 C 130.527344 375.597656 142.230469 369.613281 154.675781 369.613281 L 357.292969 369.613281 C 369.746094 369.613281 381.441406 375.597656 388.734375 385.703125 Z M 430.382812 443.414062 " style=" stroke:none;fill-rule:nonzero;fill:rgb(86.27451%,92.54902%,97.647059%);fill-opacity:1;" />
<path d="M 255.984375 411.691406 L 193.304688 454.53125 L 178.675781 363.625 L 220.464844 358.394531 Z M 255.984375 411.691406 " style=" stroke:none;fill-rule:nonzero;fill:rgb(68.627451%,76.078431%,92.156863%);fill-opacity:1;" />
<path d="M 255.984375 411.691406 L 318.664062 454.53125 L 333.292969 363.625 L 291.503906 358.394531 Z M 255.984375 411.691406 " style=" stroke:none;fill-rule:nonzero;fill:rgb(68.627451%,76.078431%,92.156863%);fill-opacity:1;" />
<path d="M 255.984375 411.691406 C 231.460938 411.691406 211.578125 391.808594 211.578125 367.285156 L 211.578125 328.097656 L 300.394531 328.097656 L 300.394531 367.285156 C 300.394531 391.808594 280.511719 411.691406 255.984375 411.691406 Z M 255.984375 411.691406 " style=" stroke:none;fill-rule:nonzero;fill:rgb(93.72549%,64.313725%,57.254902%);fill-opacity:1;" />
<path d="M 183.984375 227.820312 C 183.984375 247.933594 167.679688 264.238281 147.570312 264.238281 C 127.457031 264.238281 111.152344 247.933594 111.152344 227.820312 C 111.152344 207.710938 127.457031 191.40625 147.570312 191.40625 C 167.679688 191.40625 183.984375 207.710938 183.984375 227.820312 Z M 183.984375 227.820312 " style=" stroke:none;fill-rule:nonzero;fill:rgb(93.72549%,64.313725%,57.254902%);fill-opacity:1;" />
<path d="M 400.207031 227.820312 C 400.207031 247.933594 383.902344 264.238281 363.792969 264.238281 C 343.679688 264.238281 327.375 247.933594 327.375 227.820312 C 327.375 207.710938 343.679688 191.40625 363.792969 191.40625 C 383.902344 191.40625 400.207031 207.710938 400.207031 227.820312 Z M 400.207031 227.820312 " style=" stroke:none;fill-rule:nonzero;fill:rgb(93.72549%,64.313725%,57.254902%);fill-opacity:1;" />
<path d="M 255.984375 359.886719 C 196.109375 359.886719 147.570312 311.347656 147.570312 251.46875 L 147.570312 131.453125 L 364.402344 131.453125 L 364.402344 251.46875 C 364.402344 311.347656 315.863281 359.886719 255.984375 359.886719 Z M 255.984375 359.886719 " style=" stroke:none;fill-rule:nonzero;fill:rgb(100%,74.117647%,66.27451%);fill-opacity:1;" />
<path d="M 271.496094 358.777344 C 266.429688 359.507812 261.261719 359.878906 255.988281 359.878906 C 196.109375 359.878906 147.566406 311.351562 147.566406 251.46875 L 147.566406 131.453125 L 178.589844 131.453125 L 178.589844 251.46875 C 178.589844 306.082031 218.96875 351.257812 271.496094 358.777344 Z M 271.496094 358.777344 " style=" stroke:none;fill-rule:nonzero;fill:rgb(93.72549%,64.313725%,57.254902%);fill-opacity:1;" />
<path d="M 170.472656 135.824219 L 136.917969 152.710938 L 136.917969 229.558594 C 155.449219 229.558594 170.472656 214.535156 170.472656 196 Z M 170.472656 135.824219 " style=" stroke:none;fill-rule:nonzero;fill:rgb(30.588235%,29.019608%,31.764706%);fill-opacity:1;" />
<path d="M 341.496094 136.726562 L 375.050781 136.726562 L 375.050781 229.558594 C 356.519531 229.558594 341.496094 214.535156 341.496094 196 Z M 341.496094 136.726562 " style=" stroke:none;fill-rule:nonzero;fill:rgb(30.588235%,29.019608%,31.764706%);fill-opacity:1;" />
<path d="M 299.53125 273.785156 C 299.53125 274.183594 299.53125 274.578125 299.507812 274.976562 C 299.394531 279.679688 298.507812 284.191406 297 288.394531 C 296.773438 289.050781 296.519531 289.699219 296.261719 290.335938 C 294.660156 294.246094 292.5 297.871094 289.886719 301.097656 C 288.546875 302.78125 287.085938 304.347656 285.507812 305.78125 C 277.746094 312.96875 267.378906 317.335938 255.988281 317.335938 C 244.589844 317.335938 234.222656 312.96875 226.460938 305.78125 C 224.894531 304.347656 223.421875 302.78125 222.082031 301.097656 C 219.46875 297.871094 217.308594 294.246094 215.707031 290.335938 C 215.449219 289.699219 215.195312 289.050781 214.96875 288.394531 C 213.460938 284.191406 212.574219 279.679688 212.460938 274.976562 C 212.4375 274.578125 212.4375 274.183594 212.4375 273.785156 Z M 299.53125 273.785156 " style=" stroke:none;fill-rule:nonzero;fill:rgb(100%,100%,100%);fill-opacity:1;" />
<path d="M 255.992188 159.097656 L 235.566406 254.765625 L 255.992188 254.765625 Z M 255.992188 159.097656 " style=" stroke:none;fill-rule:nonzero;fill:rgb(93.72549%,64.313725%,57.254902%);fill-opacity:1;" />
<path d="M 229.160156 209.476562 C 229.160156 198.285156 220.085938 189.210938 208.894531 189.210938 C 197.699219 189.210938 188.628906 198.285156 188.628906 209.476562 Z M 229.160156 209.476562 " style=" stroke:none;fill-rule:nonzero;fill:rgb(93.72549%,64.313725%,57.254902%);fill-opacity:1;" />
<path d="M 323.34375 209.476562 C 323.34375 198.285156 314.269531 189.210938 303.074219 189.210938 C 291.882812 189.210938 282.808594 198.285156 282.808594 209.476562 Z M 323.34375 209.476562 " style=" stroke:none;fill-rule:nonzero;fill:rgb(93.72549%,64.313725%,57.254902%);fill-opacity:1;" />
<path d="M 208.894531 197.511719 C 215.417969 197.511719 220.707031 202.800781 220.707031 209.324219 L 220.707031 227.839844 C 220.707031 234.363281 215.417969 239.652344 208.894531 239.652344 C 202.371094 239.652344 197.082031 234.363281 197.082031 227.839844 L 197.082031 209.324219 C 197.082031 202.800781 202.371094 197.511719 208.894531 197.511719 Z M 208.894531 197.511719 " style=" stroke:none;fill-rule:nonzero;fill:rgb(17.254902%,12.941176%,20%);fill-opacity:1;" />
<path d="M 303.074219 197.511719 C 309.601562 197.511719 314.886719 202.800781 314.886719 209.324219 L 314.886719 227.839844 C 314.886719 234.363281 309.601562 239.652344 303.074219 239.652344 C 296.550781 239.652344 291.261719 234.363281 291.261719 227.839844 L 291.261719 209.324219 C 291.261719 202.800781 296.550781 197.511719 303.074219 197.511719 Z M 303.074219 197.511719 " style=" stroke:none;fill-rule:nonzero;fill:rgb(17.254902%,12.941176%,20%);fill-opacity:1;" />
<path d="M 255.984375 411.691406 L 224.40625 433.273438 L 255.984375 464.980469 L 287.5625 433.273438 Z M 255.984375 411.691406 " style=" stroke:none;fill-rule:nonzero;fill:rgb(94.901961%,26.27451%,33.333333%);fill-opacity:1;" />
<path d="M 278.832031 510.996094 C 271.308594 511.664062 263.691406 512 256 512 C 248.300781 512 240.683594 511.65625 233.148438 510.988281 L 255.988281 448.261719 Z M 278.832031 510.996094 " style=" stroke:none;fill-rule:nonzero;fill:rgb(94.901961%,26.27451%,33.333333%);fill-opacity:1;" />
<path d="M 316.679688 181.8125 L 195.316406 181.8125 L 184.414062 150.660156 L 327.582031 150.660156 Z M 316.679688 181.8125 " style=" stroke:none;fill-rule:nonzero;fill:rgb(99.215686%,68.235294%,18.431373%);fill-opacity:1;" />
<path d="M 382.09375 132.273438 C 382.09375 62.632812 325.636719 6.175781 255.996094 6.175781 C 186.359375 6.175781 129.90625 62.632812 129.90625 132.273438 " style=" stroke:none;fill-rule:nonzero;fill:rgb(99.215686%,68.235294%,18.431373%);fill-opacity:1;" />
<path d="M 256.003906 6.171875 C 218.957031 6.171875 188.929688 62.628906 188.929688 132.273438 L 129.902344 132.273438 C 129.90625 62.628906 186.359375 6.171875 256.003906 6.171875 Z M 256.003906 6.171875 " style=" stroke:none;fill-rule:nonzero;fill:rgb(92.941176%,58.431373%,17.254902%);fill-opacity:1;" />
<path d="M 118.566406 113.882812 L 393.429688 113.882812 L 393.429688 150.660156 L 118.566406 150.660156 Z M 118.566406 113.882812 " style=" stroke:none;fill-rule:nonzero;fill:rgb(99.215686%,68.235294%,18.431373%);fill-opacity:1;" />
<path d="M 118.566406 113.882812 L 165.917969 113.882812 L 165.917969 150.660156 L 118.566406 150.660156 Z M 118.566406 113.882812 " style=" stroke:none;fill-rule:nonzero;fill:rgb(92.941176%,58.431373%,17.254902%);fill-opacity:1;" />
<path d="M 237.46875 0 L 274.527344 0 L 274.527344 127.382812 L 237.46875 127.382812 Z M 237.46875 0 " style=" stroke:none;fill-rule:nonzero;fill:rgb(92.941176%,58.431373%,17.254902%);fill-opacity:1;" />
</g>
</svg>