<svg id="Capa_1" enable-background="new 0 0 511.505 511.505" height="512" viewBox="0 0 511.505 511.505" width="512" xmlns="http://www.w3.org/2000/svg"><g><g><g><path d="m430.621 203.375h-309.745c-8.731 0-15.81-7.078-15.81-15.81v-15.635h341.364v15.635c.001 8.732-7.078 15.81-15.809 15.81z" fill="#fdd089"/></g></g><g><g><path d="m486.92 171.93h-465.064c-13.073 0-19.322-16.067-9.686-24.9 21.119-19.358 48.727-30.097 77.376-30.097h397.374c9.436 0 17.085 7.649 17.085 17.085v20.827c0 9.436-7.65 17.085-17.085 17.085z" fill="#feaee1"/></g></g><g><g><path d="m486.92 116.933h-30c9.436 0 17.085 7.649 17.085 17.085v20.827c0 9.436-7.649 17.085-17.085 17.085h30c9.436 0 17.085-7.649 17.085-17.085v-20.827c0-9.435-7.65-17.085-17.085-17.085z" fill="#fe93d3"/></g></g><g><g><path d="m385.78 469.939 18.662 18.662c5.561 5.561 14.577 5.561 20.138 0s5.561-14.577 0-20.138l-18.662-18.662z" fill="#d77f4a"/></g></g><g><g><path d="m165.718 469.939-18.662 18.662c-5.561 5.561-14.577 5.561-20.138 0s-5.561-14.577 0-20.138l18.662-18.662z" fill="#d77f4a"/></g></g><g><g><path d="m422.819 116.933h-134.141c-9.038 0-16.365-7.327-16.365-16.365 0-9.038 7.327-16.365 16.365-16.365h134.141c9.038 0 16.365 7.327 16.365 16.365 0 9.038-7.327 16.365-16.365 16.365z" fill="#bd80e1"/></g></g><g><g><path d="m422.819 84.203h-134.141c-9.038 0-16.365-7.327-16.365-16.365 0-9.038 7.327-16.365 16.365-16.365h134.141c9.038 0 16.365 7.327 16.365 16.365 0 9.038-7.327 16.365-16.365 16.365z" fill="#c2fae3"/></g></g><g><g><path d="m422.819 51.473h-134.141c-9.038 0-16.365-7.327-16.365-16.365 0-9.038 7.327-16.365 16.365-16.365h134.141c9.038 0 16.365 7.327 16.365 16.365 0 9.038-7.327 16.365-16.365 16.365z" fill="#b2e5fb"/></g></g><path d="m486.92 109.433h-41.95c1.102-2.743 1.714-5.733 1.714-8.865 0-6.33-2.482-12.089-6.519-16.365 4.037-4.276 6.519-10.034 6.519-16.365s-2.482-12.089-6.519-16.365c4.037-4.276 6.519-10.034 6.519-16.365 0-13.159-10.706-23.865-23.865-23.865h-134.141c-13.159 0-23.865 10.706-23.865 23.865 0 6.331 2.482 12.089 6.519 16.365-4.037 4.276-6.519 10.035-6.519 16.365 0 6.331 2.482 12.089 6.519 16.365-4.037 4.276-6.519 10.035-6.519 16.365 0 3.132.613 6.122 1.714 8.865h-84.796c-4.142 0-7.5 3.358-7.5 7.5s3.358 7.5 7.5 7.5h106.947 134.141 64.101c5.285 0 9.585 4.3 9.585 9.585v20.827c0 5.285-4.3 9.585-9.585 9.585h-465.064c-4.337 0-5.971-3.334-6.369-4.356s-1.446-4.584 1.752-7.515c19.787-18.137 45.466-28.125 72.308-28.125h62.186c4.142 0 7.5-3.358 7.5-7.5s-3.358-7.5-7.5-7.5h-62.187c-30.604 0-59.883 11.388-82.443 32.068-6.688 6.13-8.884 15.555-5.595 24.011 3.289 8.455 11.276 13.918 20.349 13.918h75.711v8.135c0 12.853 10.457 23.31 23.31 23.31h28.779c.252.39.54.765.872 1.114l114.866 120.649-110.408 115.964-4.104-4.104c-2.929-2.929-7.678-2.929-10.607 0l-18.662 18.662c-8.476 8.476-8.476 22.268 0 30.745 4.238 4.238 9.805 6.356 15.372 6.356s11.135-2.119 15.373-6.357l18.662-18.662c1.407-1.406 2.197-3.314 2.197-5.303s-.79-3.897-2.197-5.303l-5.424-5.423 110.152-115.698 110.151 115.696-5.424 5.424c-1.407 1.406-2.197 3.314-2.197 5.303s.79 3.897 2.197 5.303l18.662 18.662c4.238 4.239 9.805 6.357 15.372 6.357 5.566 0 11.134-2.12 15.373-6.357 8.476-8.477 8.476-22.268-.001-30.744l-18.662-18.662c-2.928-2.929-7.677-2.929-10.606 0l-4.104 4.104-110.406-115.964 59.266-62.25h94.941c4.142 0 7.5-3.358 7.5-7.5s-3.358-7.5-7.5-7.5h-80.66l41.319-43.399c.332-.349.62-.723.872-1.114h28.779c12.853 0 23.31-10.456 23.31-23.31v-8.135h32.989c13.556 0 24.585-11.029 24.585-24.585v-20.827c0-13.556-11.029-24.585-24.585-24.585zm-207.107-41.595c0-4.888 3.977-8.865 8.865-8.865h134.141c4.888 0 8.865 3.977 8.865 8.865s-3.977 8.865-8.865 8.865h-134.141c-4.888 0-8.865-3.977-8.865-8.865zm8.865-41.595h134.141c4.888 0 8.865 3.977 8.865 8.865s-3.977 8.865-8.865 8.865h-134.141c-4.888 0-8.865-3.977-8.865-8.865s3.977-8.865 8.865-8.865zm0 83.19c-4.888 0-8.865-3.977-8.865-8.865s3.977-8.865 8.865-8.865h134.141c4.888 0 8.865 3.977 8.865 8.865s-3.977 8.865-8.865 8.865zm-146.926 373.865c-2.628 2.627-6.904 2.627-9.531 0-2.628-2.628-2.628-6.903-.001-9.531l13.359-13.359 9.531 9.531zm277.525-9.531c2.628 2.628 2.628 6.903 0 9.531s-6.904 2.627-9.531 0l-13.359-13.359 9.531-9.531zm-143.529-152.006-48.911-51.373h97.821zm163.183-134.196c0 4.582-3.728 8.31-8.31 8.31h-139.348c-4.142 0-7.5 3.358-7.5 7.5s3.358 7.5 7.5 7.5h90.046l-42.379 44.513h-126.193c-.061 0-.121.008-.182.009l-42.388-44.522h91.095c4.142 0 7.5-3.358 7.5-7.5s-3.358-7.5-7.5-7.5h-140.395c-4.582 0-8.31-3.728-8.31-8.31v-8.135h326.364z"/></g></svg>