<svg height="512pt" viewBox="-26 0 512 512.001" width="512pt" xmlns="http://www.w3.org/2000/svg"><path d="m141.832031 456.449219c13.304688-31.988281 36.003907-48.050781 36.003907-48.050781h105.191406s22.695312 16.0625 36.003906 48.050781l-34.738281 48.050781h-107.726563zm0 0" fill="#394048"/><path d="m21.148438 236.953125c0-55.164063 21.828124-107 61.460937-145.960937 39.511719-38.839844 92.007813-60.226563 147.820313-60.226563s108.308593 21.386719 147.820312 60.226563c39.632812 38.960937 61.460938 90.796874 61.460938 145.960937zm0 0" fill="#394048"/><path d="m245.429688 31.289062c-4.96875-.34375-9.96875-.523437-15-.523437-55.8125 0-108.308594 21.386719-147.820313 60.226563-39.632813 38.960937-61.460937 90.796874-61.460937 145.960937h30c0-55.164063 21.828124-107 61.460937-145.960937 35.949219-35.339844 82.652344-56.222657 132.820313-59.703126zm0 0" fill="#31363e"/><path d="m21.148438 293.460938s7.019531 88.148437 101.96875 88.148437l-37.183594-88.148437-51.285156-8.875zm0 0" fill="#394048"/><path d="m51.148438 293.460938 7.25-4.765626-23.75-4.109374-13.5 8.875s7.019531 88.148437 101.964843 88.148437l-1.589843-3.773437c-64.996094-16.855469-70.375-84.375-70.375-84.375zm0 0" fill="#31363e"/><path d="m439.710938 293.460938s-7.019532 88.148437-101.964844 88.148437l37.179687-88.148437 51.285157-8.875zm0 0" fill="#394048"/><path d="m453.359375 265.007812c0 20.15625-16.34375 36.5-36.5 36.5-20.160156 0-36.503906-16.34375-36.503906-36.5 0-20.160156 16.34375-36.5 36.503906-36.5 20.15625 0 36.5 16.339844 36.5 36.5zm0 0" fill="#d7a37e"/><g fill="#e8e8e8"><path d="m230.429688 405.988281 12.121093 17.773438-12.121093-3.519531-5.128907-.367188zm0 0"/><path d="m279.25 420.242188c0 13.480468-10.925781 24.410156-24.410156 24.410156-13.480469 0-24.410156-10.929688-24.410156-24.410156 0-13.480469 10.929687-24.410157 24.410156-24.410157 13.484375 0 24.410156 10.929688 24.410156 24.410157zm0 0"/><path d="m230.429688 420.242188c0 13.480468-10.929688 24.410156-24.410157 24.410156-13.484375 0-24.410156-10.929688-24.410156-24.410156 0-13.480469 10.925781-24.410157 24.410156-24.410157 13.480469 0 24.410157 10.929688 24.410157 24.410157zm0 0"/></g><path d="m289.449219 150.722656c-2.96875-4.898437-9.710938-5.722656-13.851563-1.765625-79.984375 76.449219-226.480468 79.816407-227.101562 79.832031-.125 2.707032-.199219 5.425782-.199219 8.164063 0 98.878906 81.542969 179.035156 182.132813 179.035156 100.589843 0 182.132812-80.15625 182.132812-179.035156 0-2.738281-.074219-5.457031-.195312-8.164063-68.851563-.847656-108.96875-55.054687-122.917969-78.066406zm0 0" fill="#f1be8c"/><path d="m78.296875 236.953125c0-1.09375.011719-5.449219.035156-10.460937-18.1875 2.027343-29.664062 2.292968-29.839843 2.296874v.007813c-1.457032-.183594-2.949219-.292969-4.492188-.292969-20.15625 0-36.5 16.34375-36.5 36.503906 0 20.15625 16.34375 36.5 36.5 36.5 5.628906 0 10.726562-1.277343 15.152344-3.554687 25.378906 68.84375 92.480468 118.035156 171.277344 118.035156 5.050781 0 10.050781-.210937 15-.609375-93.570313-7.496094-167.132813-84.511718-167.132813-178.425781zm0 0" fill="#d7a37e"/><path d="m328.46875 296.464844h-22.925781c-4.140625 0-7.5-3.359375-7.5-7.5 0-4.144532 3.359375-7.5 7.5-7.5h22.925781c4.144531 0 7.5 3.355468 7.5 7.5 0 4.140625-3.355469 7.5-7.5 7.5zm0 0" fill="#e98e8f"/><path d="m155.316406 296.464844h-22.925781c-4.144531 0-7.5-3.359375-7.5-7.5 0-4.144532 3.355469-7.5 7.5-7.5h22.925781c4.144532 0 7.5 3.355468 7.5 7.5 0 4.140625-3.359375 7.5-7.5 7.5zm0 0" fill="#e98e8f"/><path d="m307.457031 45.121094c3.953125-48.949219-61.59375-46.167969-77.027343-14.355469-15.433594-31.8125-80.980469-34.59375-77.027344 14.355469-25.046875-17.074219-67.28125 2.308594-30.589844 50.910156 3.929688 5.203125 11.105469 6.746094 16.808594 3.585938 13.746094-7.613282 43.417968-20.03125 90.808594-20.03125 47.390624 0 77.066406 12.417968 90.808593 20.03125 5.703125 3.160156 12.878907 1.617187 16.808594-3.585938 36.691406-48.597656-5.542969-67.984375-30.589844-50.910156zm0 0" fill="#e8e8e8"/><path d="m155.65625 468.191406-20.914062 11.738282c-1.492188 7.589843-2.351563 15.78125-2.351563 24.570312h44.175781v-24.570312zm0 0" fill="#f1be8c"/><path d="m305.203125 468.191406 20.914063 11.738282c1.492187 7.589843 2.351562 15.78125 2.351562 24.570312h-44.175781v-24.570312zm0 0" fill="#f1be8c"/><path d="m176.566406 456.449219v23.480469h-41.824218c1.664062-8.597657 4.148437-16.433594 7.089843-23.480469zm0 0" fill="#e8e8e8"/><path d="m284.292969 456.449219v23.480469h41.824219c-1.664063-8.597657-4.148438-16.433594-7.089844-23.480469zm0 0" fill="#e8e8e8"/><path d="m324.507812 264.21875v-16.832031c0-4.144531-3.359374-7.5-7.5-7.5-4.144531 0-7.5 3.355469-7.5 7.5v16.832031c0 4.144531 3.355469 7.5 7.5 7.5 4.140626 0 7.5-3.355469 7.5-7.5zm0 0"/><path d="m151.351562 264.21875v-16.832031c0-4.144531-3.355468-7.5-7.5-7.5-4.140624 0-7.5 3.355469-7.5 7.5v16.832031c0 4.144531 3.359376 7.5 7.5 7.5 4.144532 0 7.5-3.355469 7.5-7.5zm0 0"/><path d="m230.429688 295.511719c8.199218 0 15.902343-3.433594 21.132812-9.414063 2.726562-3.121094 2.40625-7.859375-.710938-10.582031-3.121093-2.726563-7.855468-2.410156-10.582031.710937-2.382812 2.722657-5.96875 4.285157-9.839843 4.285157-3.871094 0-7.457032-1.5625-9.835938-4.285157-2.726562-3.121093-7.464844-3.4375-10.585938-.710937-3.117187 2.726563-3.433593 7.464844-.707031 10.582031 5.226563 5.980469 12.929688 9.414063 21.128907 9.414063zm0 0"/><path d="m237.359375 458.792969c0 3.828125-3.101563 6.929687-6.929687 6.929687-3.828126 0-6.929688-3.101562-6.929688-6.929687s3.101562-6.929688 6.929688-6.929688c3.828124 0 6.929687 3.101563 6.929687 6.929688zm0 0"/><path d="m237.359375 482.890625c0 3.824219-3.101563 6.929687-6.929687 6.929687-3.828126 0-6.929688-3.105468-6.929688-6.929687 0-3.828125 3.101562-6.929687 6.929688-6.929687 3.828124 0 6.929687 3.101562 6.929687 6.929687zm0 0"/><path d="m14.042969 297.191406c1.019531 7.210938 4.605469 25.6875 16.105469 44.289063 13.230468 21.402343 39.679687 46.835937 90.644531 47.59375 12.996093 9.089843 27.207031 16.597656 42.335937 22.265625-8.335937 8.320312-19.960937 22.371094-28.222656 42.230468-6.699219 16.09375-10.015625 33.511719-10.015625 50.929688 0 4.144531 3.359375 7.5 7.5 7.5h196.097656c4.140625 0 7.5-3.355469 7.5-7.5 0-.191406-.007812-.378906-.023437-.566406-1.214844-16.664063-2.492188-35.707032-10.226563-50.878906-7.273437-17.265626-17.140625-30.011719-24.167969-37.6875-1.277343-1.394532-2.566406-2.722657-3.859374-4.015626 15.132812-5.671874 29.351562-13.183593 42.355468-22.277343 50.964844-.757813 77.414063-26.191407 90.644532-47.59375 11.5-18.601563 15.085937-37.078125 16.105468-44.285157 8.628906-8.039062 14.042969-19.492187 14.042969-32.1875 0-12.53125-5.273437-23.847656-13.707031-31.867187-.566406-32.667969-8.351563-63.847656-23.199219-92.707031-1.898437-3.6875-6.417969-5.132813-10.101563-3.238282-3.683593 1.894532-5.132812 6.414063-3.238281 10.097657 12.300781 23.90625 19.394531 49.523437 21.15625 76.320312-2.296875-.832031-4.683593-1.464843-7.140625-1.90625-3.644531-.648437-7.355468-.820312-11.046875-.558593-7.15625.550781-14.664062-.582032-21.691406-1.875-39.351563-7.34375-71.921875-35.078126-93.230469-67.96875-3.753906-5.800782-7.179687-11.226563-14.660156-12.210938-9.234375-1.222656-14.828125 5.871094-21.140625 11.265625-20.027344 17.117187-43.421875 30.027344-67.730469 39.988281-4.019531 1.648438-5.8125 6.644532-3.769531 10.476563 1.765625 3.320312 5.972656 4.832031 9.453125 3.40625 25.835938-10.585938 50.621094-24.347657 71.890625-42.550781 2.789063-2.382813 5.480469-4.820313 8.074219-7.300782.65625-.625 1.769531-.566406 2.253906.234375 11.480469 18.886719 26.0625 36.195313 43.402344 49.964844 19.714844 15.65625 42.726562 26.539063 67.71875 30.273437.820312.121094 10.898437 1.199219 10.898437 1.164063-.402343 78.441406-54.769531 147.824219-130.964843 167.050781-28.019532 7.070313-58.925782 7.40625-87.320313 0-69.59375-17.667968-122.503906-76.527344-130.042969-148.410156-.117187-1.117188-1.257812-18.679688-.917968-18.679688.054687-.003906 1.25-.109374 1.785156-.109374 13.515625-.804688 27.023437-2.355469 40.410156-4.34375 25.050781-3.738282 50.132812-9.277344 74.371094-17 3.949218-1.253907 6.128906-5.472657 4.875-9.421876-1.257813-3.945312-5.476563-6.125-9.421875-4.871093-22.695313 7.226562-46.027344 12.414062-69.558594 16.027343-14.765625 2.265626-29.644531 3.964844-44.5625 4.792969-1.566406.089844-3.332031.394531-4.894531.226563-6.464844-.691406-13.449219.070312-19.710938 2.332031 3.21875-48.113281 23.804688-92.898437 58.769532-127.269531 5.472656-5.378906 11.289062-10.476563 17.359374-15.226563 2.484376 5.824219 6.054688 11.894531 10.652344 18.148438 6.296875 8.5625 17.667969 12.285156 27.378906 6.917969 10.308594-5.703126 21.527344-9.726563 32.917969-12.664063 14.199219-3.664063 32.207031-6.429687 54.253907-6.429687 21.816406 0 39.683593 2.710937 53.8125 6.3125 11.539062 2.945312 22.925781 7 33.367187 12.785156 8.742187 4.84375 20.410156 2.3125 26.421875-5.632813 5.066406-6.710937 8.945312-13.210937 11.597656-19.4375 6.074219 4.75 11.886719 9.847657 17.363282 15.226563 8.070312 7.933594 15.503906 16.574218 22.09375 25.6875 2.425781 3.355468 7.113281 4.109375 10.472656 1.679687 3.355468-2.425781 4.109375-7.113281 1.679687-10.472656-7.078125-9.789063-15.0625-19.070313-23.730469-27.589844-7.410156-7.28125-15.394531-14.078125-23.789062-20.25.648438-7.730469-1.105469-13.4375-2.941406-17.121093-5.144532-10.328126-16.503906-16.746094-29.652344-16.746094-4.230469 0-8.480469.664062-12.550781 1.933594-1.214844-8.015626-4.417969-14.964844-9.5-20.46875-7.726563-8.378907-19.363281-12.992188-32.765625-12.992188-16.515625 0-32.070313 6.761719-41.878906 17.582031-9.808594-10.820312-25.363282-17.582031-41.878907-17.582031-13.402343 0-25.039062 4.613281-32.765625 12.988281-5.078125 5.503907-8.28125 12.457031-9.5 20.472657-4.070312-1.269532-8.320312-1.933594-12.550781-1.933594-13.148437 0-24.511719 6.417968-29.652344 16.742187-1.835937 3.6875-3.59375 9.394531-2.941406 17.125-8.394531 6.171875-16.382813 12.96875-23.789063 20.25-40.152343 39.472657-62.667968 91.738281-63.648437 147.5-8.429687 8.023438-13.703125 19.335938-13.703125 31.863281 0 12.695313 5.410156 24.144532 14.042969 32.183594zm103.464843-242.234375c2.628907-5.277343 8.695313-8.429687 16.226563-8.429687 5.425781 0 10.910156 1.703125 15.441406 4.792968 5.117188 3.488282 12.199219-.65625 11.703125-6.800781-1.4375-17.726562 10.03125-29.519531 27.671875-29.519531 15.246094 0 29.691407 7.828125 35.128907 19.039062 2.6875 5.53125 10.816406 5.523438 13.496093 0 5.441407-11.210937 19.886719-19.039062 35.132813-19.039062 17.59375 0 29.105468 11.777344 27.675781 29.519531-.5 6.167969 6.582031 10.289063 11.699219 6.800781 4.53125-3.089843 10.015625-4.792968 15.441406-4.792968 7.527344 0 13.59375 3.152344 16.222656 8.429687 1.800782 3.617188 2.027344 8.195313.765625 13.480469-1.4375 5.996094-4.804687 12.878906-9.972656 20.21875-1.417969 2.011719-2.820313 4.433594-5.433594 4.96875-3.457031.710938-7.734375-2.675781-10.773437-4.113281-8.753906-4.152344-17.929688-7.378907-27.273438-9.917969-15.667968-4.242188-35.691406-7.507812-60.230468-7.507812-23.082032 0-42.171876 2.886718-57.394532 6.761718-12.738281 3.242188-25.464844 7.792969-37.050781 14.210938-2.371094 1.308594-5.566406.636718-7.1875-1.546875-.007813-.015625-.019531-.027344-.027344-.039063-.660156-.875-2.007812-2.75-2.058593-2.828125-5.160157-7.328125-8.523438-14.199219-9.964844-20.191406-.003906-.027344-.011719-.058594-.019532-.089844-1.242187-5.238281-1.015624-9.800781.78125-13.40625zm-89.933593 186.171875c3.875-2.65625 8.503906-4.417968 13.226562-4.929687-.003906.25-.003906.5-.003906.753906 0 7.917969.519531 15.828125 1.523437 23.683594.003907.023437.003907.042969.007813.066406 1.4375 11.121094 3.878906 22.0625 7.328125 32.742187-.1875.039063-.371094.074219-.558594.109376-17.5 3.105468-34.097656-10.796876-34.097656-28.546876 0-9.410156 4.808594-18.554687 12.574219-23.878906zm15.625 92.933594c-6.007813-9.589844-9.59375-19.296875-11.703125-26.875 3.96875 1.179688 8.160156 1.820312 12.503906 1.820312 3.660156 0 7.359375-.449218 10.902344-1.363281 10.152344 24.398438 25.351562 46.242188 44.691406 64.34375-24.648438-4.746093-43.5625-17.445312-56.394531-37.925781zm195.742187 89.230469c10.996094-.460938 22.015625-1.902344 32.769532-4.246094.027343.394531.042968.792969.042968 1.195313 0 9.324218-7.585937 16.910156-16.914062 16.910156-8.269532 0-15.171875-5.964844-16.625-13.820313.242187-.011719.484375-.027343.726562-.039062zm-16.292968.035156c-1.457032 7.855469-8.359376 13.824219-16.628907 13.824219-9.59375 0-17.53125-8.550782-16.871093-18.105469 3.808593.832031 7.644531 1.480469 11.488281 2.132813 7.027343 1.199218 14.160156 1.8125 21.28125 2.113281.242187.011719.484375.027343.730469.035156zm-75.699219 40.621094h22.117187v8.480469h-24.851562c.796875-2.859376 1.710937-5.691407 2.734375-8.480469zm-5.867188 23.480469h27.984375v9.570312h-28.949218c.195312-3.222656.515624-6.417969.964843-9.570312zm150.710938-23.480469h22.117187c1.023438 2.789062 1.933594 5.621093 2.734375 8.480469h-24.851562zm0 33.050781v-9.570312h27.984375c.445312 3.152343.769531 6.347656.964844 9.570312zm15.371093-48.050781h-22.871093c-4.085938 0-7.5 3.410156-7.5 7.5v40.550781h-92.726563s0-40.503906 0-40.550781c0-4.058594-3.445312-7.5-7.5-7.5h-22.863281c6.75-12.5 14.664063-21.640625 20.4375-27.355469.710937 16.96875 14.734375 30.558594 31.878906 30.558594 9.785157 0 18.554688-4.429688 24.410157-11.386719 5.859374 6.957031 14.625 11.386719 24.410156 11.386719 17.15625 0 31.1875-13.609375 31.878906-30.597656 5.765625 5.691406 13.671875 14.820312 20.445312 27.394531zm111.375-188.3125c1.035157-8.101563 1.550782-16.273438 1.519532-24.4375 14.429687 1.566406 25.800781 14.300781 25.800781 28.808593 0 16.070313-14.050781 29.84375-30.226563 29.011719-.261718-.011719-4.429687-.570312-4.429687-.570312 3.449219-10.683594 5.890625-21.625 7.328125-32.746094.003906-.019531.003906-.042969.007812-.066406zm-.585937 72.953125c-12.832031 20.761718-31.84375 33.617187-56.691406 38.398437 19.339843-18.101562 34.542969-39.941406 44.695312-64.34375 7.671875 1.957031 15.835938 1.792969 23.429688-.464843-2.066407 7.429687-5.566407 16.921874-11.433594 26.410156zm0 0"/></svg>