<?xml version="1.0" encoding="iso-8859-1"?>
<!-- Generator: Adobe Illustrator 19.0.0, SVG Export Plug-In . SVG Version: 6.00 Build 0)  -->
<svg version="1.1" id="Layer_1" xmlns="http://www.w3.org/2000/svg" xmlns:xlink="http://www.w3.org/1999/xlink" x="0px" y="0px"
	 viewBox="0 0 512.001 512.001" style="enable-background:new 0 0 512.001 512.001;" xml:space="preserve">
<g>
	<rect x="174.22" y="351.671" style="fill:#E05841;" width="163.56" height="107"/>
	<rect x="10.667" y="53.33" style="fill:#E05841;" width="237.16" height="101.33"/>
</g>
<rect x="247.82" y="53.33" style="fill:#D14841;" width="163.56" height="101.33"/>
<g>
	<rect x="411.38" y="53.33" style="fill:#E05841;" width="89.95" height="101.33"/>
	<rect x="10.667" y="154.67" style="fill:#E05841;" width="168.67" height="101.33"/>
	<rect x="174.22" y="154.67" style="fill:#E05841;" width="163.56" height="101.33"/>
</g>
<g>
	<rect x="337.78" y="154.67" style="fill:#D14841;" width="163.56" height="101.33"/>
	<rect x="10.667" y="256" style="fill:#D14841;" width="237.16" height="101.33"/>
</g>
<g>
	<rect x="247.82" y="256" style="fill:#E05841;" width="163.56" height="101.33"/>
	<rect x="411.38" y="256" style="fill:#E05841;" width="89.95" height="101.33"/>
</g>
<rect x="10.667" y="53.33" style="fill:#D14841;" width="89.95" height="101.33"/>
<rect x="10.667" y="256" style="fill:#E05841;" width="89.95" height="101.33"/>
<g>
	<rect x="10.667" y="357.33" style="fill:#D14841;" width="163.56" height="101.33"/>
	<rect x="337.78" y="357.33" style="fill:#D14841;" width="163.56" height="101.33"/>
</g>
<g>
	<path style="fill:#231F20;" d="M501.333,42.667H10.667C4.777,42.667,0,47.442,0,53.333v405.333c0,5.891,4.777,10.667,10.667,10.667
		h490.667c5.89,0,10.667-4.775,10.667-10.667V53.333C512,47.442,507.224,42.667,501.333,42.667z M184.889,245.333v-15.289
		c0-5.891-4.777-10.667-10.667-10.667s-10.667,4.775-10.667,10.667v15.289H21.333v-80H327.11v80L184.889,245.333L184.889,245.333z
		 M237.155,346.667H111.289v-80h125.867v80H237.155z M21.333,266.667h68.622v80H21.333V266.667z M348.444,165.333h142.223v80
		H348.444V165.333z M422.044,266.667h68.623v80h-68.623V266.667L422.044,266.667z M490.667,144h-68.623V64h68.623V144z M400.71,144
		H258.489V64H400.71V144z M237.155,144H111.289V64h125.867v80H237.155z M21.333,64h68.622v80H21.333V64z M21.333,368h142.222v80
		H21.333V368z M184.889,368h62.933c5.89,0,10.667-4.775,10.667-10.667v-90.667H400.71v80h-78.044
		c-5.89,0-10.667,4.775-10.667,10.667S316.777,368,322.667,368h4.444v80H184.889V368z M490.667,448H348.444v-80h142.223V448z"/>
	<path style="fill:#231F20;" d="M287.11,346.667h-1.067c-5.89,0-10.667,4.775-10.667,10.667S280.154,368,286.044,368h1.067
		c5.89,0,10.667-4.775,10.667-10.667S293.001,346.667,287.11,346.667z"/>
	<path style="fill:#231F20;" d="M174.222,182.4c-5.89,0-10.667,4.775-10.667,10.667v1.067c0,5.891,4.777,10.667,10.667,10.667
		s10.667-4.775,10.667-10.667v-1.067C184.889,187.175,180.112,182.4,174.222,182.4z"/>
</g>
<g>
</g>
<g>
</g>
<g>
</g>
<g>
</g>
<g>
</g>
<g>
</g>
<g>
</g>
<g>
</g>
<g>
</g>
<g>
</g>
<g>
</g>
<g>
</g>
<g>
</g>
<g>
</g>
<g>
</g>
</svg>
