<svg id="filled_outline" enable-background="new 0 0 512 512" height="512" viewBox="0 0 512 512" width="512" xmlns="http://www.w3.org/2000/svg"><path d="m152 280-16 16 8 32-113.6931152 80.2539063c-13.9880982 9.8740234-22.3068848 25.9287109-22.3068848 43.0507812 0 29.1025391 23.5925293 52.6953125 52.6954346 52.6953125h.0001221c17.1219482 0 33.1765137-8.3188477 43.0504761-22.3066406l80.2539672-113.6933594 32 8 16-16zm-88 192c-13.2548218 0-24-10.7451172-24-24s10.7451782-24 24-24 24 10.7451172 24 24-10.7451782 24-24 24z" fill="#f98800"/><path d="m267.3137207 19.3137093 225.3725586 225.3725891c6.2484131 6.2483826 6.2484131 16.3790131 0 22.6274261l-57.3725586 57.3725586c-6.2484131 6.2484131-16.3790283 6.2484131-22.6274414 0l-225.3725739-225.3725777c-6.2483826-6.2483826-6.2483826-16.3790283 0-22.6274109l57.3725891-57.3725853c6.2483826-6.2483892 16.3790131-6.2483892 22.6274262.0000001z" fill="#ffec00"/><path d="m492.6900024 267.3100586-57.3800049 57.3798828c-6.2399902 6.2402344-16.3800049 6.2402344-22.6199951 0l-225.3800048-225.3798828c-6.2399902-6.2399902-6.2399902-16.380127 0-22.6201172l16.6900024-16.6899414 194.0599976 194.0600586c6.25 6.25 16.3800049 6.25 22.6300049 0l40.6900024-40.6801758 31.3099976 31.3100586c6.2399902 6.2399902 6.2399902 16.3798828-.0000001 22.6201172z" fill="#fcc200"/><path d="m203.3125 331.3125-22.625-22.625 16.4615173-16.4641724c4.6805878-4.6813354 5.9949493-11.7616882 3.306366-17.8110046l-82.6112289-185.8752823c-5.3776779-12.0997772-2.7479019-26.2618752 6.6151428-35.6244354l33.5191727-33.5174294c14.3713989-14.370656 37.6713562-14.3703527 52.0423889.0006771l17.2916412 17.291647-22.625 22.625-9.3731995-9.3731918c-6.2486115-6.2486229-16.379715-6.2483559-22.628006.0005989l-17.8348694 17.83675c-4.6808319 4.6813278-5.9953308 11.7618637-3.3066711 17.8113251l82.6108704 185.8744812c5.3777924 12.1000366 2.7477875 26.2624207-6.6156616 35.6249695z" fill="#c9e6fa"/><path d="m328 86.6274185v193.3726196c0 13.2548142 10.7451477 23.9999619 23.9999695 23.9999619h.000061c13.2548218 0 23.9999695-10.7451477 23.9999695-23.9999695v-16.0000305-8.0000153c0-8.8365478 7.1634216-15.9999847 15.9999695-15.9999847h.000061c8.8365479 0 15.9999695 7.1634369 15.9999695 15.9999847v96.0000153 48.0000305c0 13.2548218 10.7451477 23.9999695 23.9999695 23.9999695h.000061c13.2548218 0 23.9999695-10.7451477 23.9999695-23.9999695v-64.0000305 8.0000305c0 13.2548218 10.7451477 23.9999695 23.9999695 23.9999695h.000061c13.2548218 0 23.9999695-10.7451477 23.9999695-23.9999695v-113.3726196c0-4.243454-1.6856995-8.3131256-4.6862793-11.3137054l-144-144c-10.0794373-10.0794373-27.3137207-2.9407654-27.3137207 11.313713z" fill="#aedef8"/><path d="m387.3200073 222.0898438c2.8900147 2.8901367 4.6799927 6.8901367 4.6799927 11.3100585v6.6000977c-8.8400269 0-16 7.1599121-16 16v24c0 6.6201172-2.6900024 12.6201172-7.0300293 16.9697266-4.3499756 4.340332-10.3499756 7.0302734-16.9699707 7.0302734-13.2399902 0-23.9799805-10.7299805-24-23.9702148 2.5.8901367 5.2000122 1.3701172 8 1.3701172 6.6199951 0 12.6199951-2.6801758 16.9699707-7.0297852 4.3400269-4.340332 7.0300293-10.340332 7.0300293-16.9702149v-24c0-8.829834 7.1599731-16 16-16 4.4199829 0 8.4199829 1.7900391 11.3200073 4.6899415z" fill="#00a8e7"/><path d="m456 344.0297852v55.9702148c0 6.6201172-2.6900024 12.6201172-7.0300293 16.9697266-4.3499756 4.340332-10.3499756 7.0302734-16.9699707 7.0302734-13.2399902 0-23.9799805-10.7299805-24-23.9702148 2.5.8901367 5.2000122 1.3701172 8 1.3701172 6.6199951 0 12.6199951-2.6801758 16.9699707-7.0297852 4.3400269-4.340332 7.0300293-10.340332 7.0300293-16.9702149v-56c0 10.4501954 6.6799927 19.3403321 16 22.6298829z" fill="#00a8e7"/><path d="m504 230.6298828v113.3701172c0 6.6201172-2.6900024 12.6201172-7.0300293 16.9697266-4.3499756 4.340332-10.3499756 7.0302734-16.9699707 7.0302734-13.2399902 0-23.9799805-10.7299805-24-23.9702148 2.5.8901367 5.2000122 1.3701172 8 1.3701172 6.6199951 0 12.6199951-2.6801758 16.9699707-7.0297852 4.3400269-4.340332 7.0300293-10.340332 7.0300293-16.9702149v-113.3999023l11.3099976 11.3100586c3 3 4.6900024 7.0698242 4.6900024 11.3198242z" fill="#00a8e7"/><path d="m432.0000305 456h-.000061c-13.2548218 0-23.9999695 10.7451477-23.9999695 23.9999695v.000061c0 13.2548218 10.7451477 23.9999695 23.9999695 23.9999695h.000061c13.2548218 0 23.9999695-10.7451477 23.9999695-23.9999695v-.000061c0-13.2548218-10.7451477-23.9999695-23.9999695-23.9999695z" fill="#aedef8"/><path d="m456 480c0 6.6201172-2.6900024 12.6201172-7.0300293 16.9697266-4.3499756 4.340332-10.3499756 7.0302734-16.9699707 7.0302734s-12.6199951-2.6899414-16.9699707-7.0302734c-2.75-2.7597656-4.8400269-6.1796875-6-10 2.1999512.6704101 4.5499878 1.0302734 6.9699707 1.0302734 6.6199951 0 12.6199951-2.6899414 16.9699707-7.0302734 4.3400269-4.3496094 7.0300293-10.3496094 7.0300293-16.9697266 0-2.4199219-.3599854-4.7700195-1.0300293-6.9702148 3.8200073 1.1601563 7.2400513 3.25 10 6 4.3400269 4.3500976 7.0300293 10.3500976 7.0300293 16.9702148z" fill="#00a8e7"/><path d="m200 328-16 16-32-8-68.8499756 97.5400391c3.039978 4.0297851 4.8499756 9.040039 4.8499756 14.4599609 0 13.25-10.75 24-24 24-5.2199707 0-10.0499878-1.6699219-13.9899902-4.5097656-6.6199952 2.9399414-13.8599854 4.5097656-21.3099976 4.5097656-6.2000122 0-12.1400146-1.0698242-17.6600342-3.0400391 2.6400146 7.4501953 6.9200439 14.1298828 12.3900146 19.6098633 9.5399781 9.5302735 22.710022 15.4301758 37.2700196 15.4301758 8.5599976 0 16.8499756-2.0800781 24.2399902-5.9101563s13.8699951-9.409668 18.8099976-16.3999023l80.25-113.6899414 32 8 16-16z" fill="#f05a29"/><g fill="#fff"><circle cx="424" cy="472" r="8"/><circle cx="424" cy="400" r="8"/><circle cx="344" cy="280" r="8"/><circle cx="80" cy="400" r="8"/><path d="m424 376c-4.4182739 0-8-3.5817261-8-8v-16c0-4.4182739 3.5817261-8 8-8 4.4182739 0 8 3.5817261 8 8v16c0 4.4182739-3.5817261 8-8 8z"/><path d="m344 256c-4.4182739 0-8-3.5817108-8-7.9999847v-16.0000305c0-4.418274 3.5817261-7.9999848 8-7.9999848 4.4182739 0 8 3.5817108 8 7.9999847v16.0000305c0 4.418274-3.5817261 7.9999848-8 7.9999848z"/><circle cx="480" cy="336" r="8"/><path d="m480 312c-4.4182739 0-8-3.5817261-8-8v-40c0-4.4182739 3.5817261-8 8-8 4.4182739 0 8 3.5817261 8 8v40c0 4.4182739-3.5817261 8-8 8z"/><path d="m104.0048828 391.9996643c-2.3466797 0-4.671875-1.0273438-6.2519531-3.0029297-2.7597656-3.4492188-2.2001953-8.484375 1.25-11.2441406l40-32c3.4492188-2.7587891 8.484375-2.2001953 11.2441406 1.25 2.7597656 3.4492188 2.2001953 8.484375-1.25 11.2441406l-40 32c-1.4746094 1.1796875-3.2392578 1.7529297-4.9921875 1.7529297z"/></g><path d="m64 416c-17.6450195 0-32 14.3554688-32 32s14.3549805 32 32 32 32-14.3554688 32-32-14.3549805-32-32-32zm0 48c-8.8222656 0-16-7.1777344-16-16s7.1777344-16 16-16 16 7.1777344 16 16-7.1777344 16-16 16z"/><path d="m504.9667969 213.6533203-143.9995117-143.9990234c-5.8222656-5.8242188-14.0595703-8.2529297-22.0371094-6.4970703-4.1578979.9150391-7.8930054 2.8464355-10.9279785 5.5310059l-55.0354004-55.0349121c-9.3554688-9.3544922-24.578125-9.3544922-33.9335938 0l-11.720459 11.7202148-11.6350098-11.6352539c-17.4663086-17.4658203-45.8876953-17.4658203-63.355957 0l-33.519043 33.5175781c-11.6201172 11.6191406-14.9428711 29.5146484-8.269043 44.5302734l82.6113281 185.875c1.3344727 3.0029297.6699219 6.5820313-1.6533203 8.90625l-10.8043823 10.8061523-23.0305786-23.0307617c-3.1240234-3.1230469-8.1894531-3.1230469-11.3134766 0l-16 16c-1.9873047 1.9873047-2.7861328 4.8710938-2.1044922 7.5976563l6.6708984 26.6835938-109.2167969 77.09375c-16.0878904 11.3574218-25.6928709 29.8945312-25.6928709 49.586914 0 33.4677734 27.2280273 60.6953125 60.6953125 60.6953125 19.6933594 0 38.2299805-9.6044922 49.5864258-25.6933594l77.09375-109.2167969 26.684082 6.6708984c2.7280273.6845703 5.6103516-.1162109 7.597168-2.1035156l16-16c3.1245117-3.125 3.1245117-8.1894531 0-11.3144531l-23.0299072-23.0297852 18.5699463-18.5678711c11.6196289-11.6201172 14.9428711-29.515625 8.2695313-44.53125l-82.6108398-185.875c-1.3349609-3.0029297-.6704102-6.5820313 1.6533203-8.90625l17.8344727-17.8359375c1.5112305-1.5117188 3.5200195-2.34375 5.6572266-2.34375s4.1459961.8320313 5.6572266 2.34375l3.7156982 3.7158203-11.7200928 11.7197266c-4.5292971 4.5292969-7.0234377 10.5556641-7.0234377 16.9677735s2.4941406 12.4384766 7.0234375 16.9677734l138.3466797 138.3461914v36.6860352c0 17.6445313 14.3549805 32 32 32 8.5341797 0 16.5678711-3.3271484 22.6367188-9.3837891.7792969-.7822266 1.5064697-1.6108398 2.1992798-2.4663086l23.1640014 23.1640625v76.6860352c0 17.6445313 14.3549805 32 32 32 8.5341797 0 16.5678711-3.3271484 22.6328125-9.3798828 6.0405273-6.0527344 9.3671875-14.0869141 9.3671875-22.6201172v-28.2949219c4.7094727 2.7304688 10.1757813 4.2949219 16 4.2949219 8.5341797 0 16.5678711-3.3271484 22.6328125-9.3798828 6.0405273-6.0527344 9.3671875-14.0869141 9.3671875-22.6201172v-113.3701172c0-6.4121094-2.4975586-12.4404297-7.0332031-16.9765625zm-291.4208985 153.4873047-27.6054688-6.9013672c-3.2080078-.8007813-6.5717773.4501953-8.4760742 3.1474609l-80.2539062 113.6933594c-8.3627929 11.8466797-22.0131836 18.9199219-36.5151367 18.9199219-24.6450195 0-44.6953125-20.0498047-44.6953125-44.6953125 0-14.5019531 7.0727539-28.1523438 18.9199219-36.5146484l113.6933594-80.2539063c2.6982422-1.9052734 3.9487305-5.2724609 3.1479492-8.4765625l-6.9013672-27.6054688 7.1401367-7.1406249 23.0261841 23.0263672c.0016479.0014648.0029297.003418.0045776.0048828l22.625 22.625c.0016479.0014648.003418.0029297.0050659.0043945l23.0256958 23.0258789zm-12.5742187-322.8574219c-4.5332031-4.5341797-10.5605469-7.0302734-16.9716797-7.0302734-6.4106445 0-12.4375 2.4970703-16.9707031 7.0302734l-17.8349609 17.8369141c-6.9707031 6.9716797-8.9638672 17.7080078-4.9599609 26.7167969l82.6108398 185.875c4.0039063 9.0097656 2.0102539 19.7470703-4.9619141 26.71875l-18.5703125 18.5683594-11.3117676-11.3115235 10.8049316-10.8076172c6.9702148-6.9716797 8.9633789-17.7080078 4.9599609-26.7167969l-82.6113281-185.875c-4.0043945-9.0097656-2.0107422-19.7470703 4.9614258-26.7177734l33.519043-33.5175781c11.2290039-11.2285156 29.5-11.2304688 40.7290039 0l11.6345825 11.6345215-11.3116455 11.3115234zm-8.0048828 49.3701172c-3.1171875-3.1171875-3.1171875-8.1894531 0-11.3066406l17.3754272-17.375c.0006714-.0007324.0013428-.0012207.0020142-.0019531l11.3125-11.3125 28.6899414-28.6894531c3.1171875-3.1171875 8.1894531-3.1171875 11.3066406 0l58.5609741 58.5605469c-.1273803 1.0200194-.2142944 2.0507812-.2142944 3.1015624v134.0561523zm190.7246094 190.7241211c.1982421-1.4448242.3085937-2.9057617.3085937-4.3774414v-24c0-4.4111328 3.5888672-8 8-8 2.1396484 0 4.1542969.8330078 5.652832 2.3261719 1.5136719 1.5195312 2.347168 3.5341797 2.347168 5.6738281v44.6860352zm112.3085937 59.6225586c0 4.2666016-1.6669922 8.2861328-4.6811523 11.3076172-3.0327149 3.0253906-7.0522461 4.6923828-11.3188477 4.6923828-8.8222656 0-16-7.1777344-16-16 0-4.4179688-3.581543-8-8-8s-8 3.5820313-8 8v56c0 4.2666016-1.6669922 8.2861328-4.6811523 11.3076172-3.0327149 3.0253906-7.0522461 4.6923828-11.3188477 4.6923828-8.8222656 0-16-7.1777344-16-16v-144c0-6.4023438-2.4907227-12.4287109-7.0332031-16.9873047-4.5385742-4.5224609-10.5639649-7.0126953-16.9667969-7.0126953-13.2333984 0-24 10.7666016-24 24v24c0 1.5908203-.2299805 3.1503906-.6855469 4.6464844-.7568359 2.4931641-2.144043 4.8027344-3.9956055 6.6611328-3.0327148 3.0253906-7.052246 4.6923828-11.3188476 4.6923828-8.8222656 0-16-7.1777344-16-16v-193.3701172c0-1.0263672.1621094-1.9794922.4990234-2.8798828.9067383-2.4658203 3.1557617-4.3691406 5.8691406-4.9667969 1.5620117-.3417969 4.5849609-.5166016 7.2851563 2.1845703l144 144c1.5131836 1.5126954 2.3466797 3.5244141 2.3466797 5.6621094z"/><path d="m432 448c-17.6450195 0-32 14.3554688-32 32s14.3549805 32 32 32 32-14.3554688 32-32-14.3549805-32-32-32zm0 48c-8.8222656 0-16-7.1777344-16-16s7.1777344-16 16-16 16 7.1777344 16 16-7.1777344 16-16 16z"/></svg>