<svg id="Capa_1" enable-background="new 0 0 512 512" height="512" viewBox="0 0 512 512" width="512" xmlns="http://www.w3.org/2000/svg"><g><g><g><path d="m100.435 504.5h-30.305v-275.774c0-43.446 35.346-78.793 78.793-78.793s78.793 35.346 78.793 78.793v186.375c0 29.8 24.244 54.044 54.044 54.044s54.044-24.244 54.044-54.044v-124.755h30.305v124.755c0 46.51-37.839 84.349-84.349 84.349s-84.349-37.839-84.349-84.349v-186.375c0-26.736-21.752-48.488-48.488-48.488s-48.488 21.752-48.488 48.488z" fill="#f6f9f9"/></g></g><g><g><path d="m134.78 180.238c-26.736 0-48.488 21.752-48.488 48.488v275.774h14.142v-275.774c0-24.334 18.021-44.533 41.417-47.967-2.309-.339-4.668-.521-7.071-.521z" fill="#e7ecf6"/></g><g><path d="m213.573 228.726v186.375c0 29.8 24.244 54.044 54.044 54.044 2.398 0 4.755-.173 7.071-.477-26.468-3.477-46.973-26.164-46.973-53.566v-186.376c0-43.446-35.346-78.793-78.793-78.793-2.385 0-4.74.125-7.071.333 40.144 3.59 71.722 37.398 71.722 78.46z" fill="#e7ecf6"/></g><g><path d="m351.965 290.346v124.755c0 44.127-34.067 80.423-77.277 84.03 2.334.195 4.688.319 7.071.319 46.51 0 84.349-37.839 84.349-84.349v-124.755z" fill="#e7ecf6"/></g></g><g><path d="m435.809 138.821h-169.707c-3.347 0-6.061-2.714-6.061-6.061v-28.285c0-3.347 2.714-6.061 6.061-6.061h169.707c3.347 0 6.061 2.714 6.061 6.061v28.285c0 3.348-2.714 6.061-6.061 6.061z" fill="#8b818e"/></g><g><path d="m381.26 290.346h-60.61c-5.579 0-10.102-4.523-10.102-10.102v-30.305h80.813v30.305c.001 5.579-4.522 10.102-10.101 10.102z" fill="#665e66"/></g><g><g><path d="m416.616 98.415h-30.305v-75.763c0-8.368 6.784-15.152 15.152-15.152 8.368 0 15.152 6.784 15.152 15.152v75.763z" fill="#ffe07d"/></g><g><path d="m285.295 98.415h30.305v-75.763c0-8.368-6.784-15.152-15.152-15.152-8.368 0-15.152 6.784-15.152 15.152v75.763z" fill="#ffe07d"/></g></g><g><path d="m411.565 249.939h-121.22c-11.158 0-20.203-9.045-20.203-20.203v-90.915h161.626v90.915c0 11.158-9.045 20.203-20.203 20.203z" fill="#8b818e"/></g><g><circle cx="350.955" cy="199.431" fill="#ffe07d" r="17.173"/></g><g><path d="m270.142 138.821v17.173h134.352c5.579 0 10.102 4.523 10.102 10.102v83.592c9.716-1.466 17.173-9.827 17.173-19.952v-90.915z" fill="#665e66"/></g><g><path d="m326.283 199.431c0 13.604 11.068 24.673 24.672 24.673s24.673-11.068 24.673-24.673-11.068-24.672-24.673-24.672-24.672 11.067-24.672 24.672zm34.345 0c0 5.333-4.339 9.673-9.673 9.673s-9.672-4.339-9.672-9.673 4.339-9.672 9.672-9.672 9.673 4.338 9.673 9.672z"/><path d="m435.809 90.915h-11.693v-68.263c0-12.49-10.162-22.652-22.653-22.652s-22.652 10.162-22.652 22.652v68.262h-55.711v-68.262c0-12.49-10.162-22.652-22.653-22.652s-22.652 10.162-22.652 22.652v68.262h-11.693c-7.478 0-13.561 6.083-13.561 13.561v28.285c0 6.28 4.297 11.562 10.102 13.097v83.879c0 15.275 12.428 27.703 27.704 27.703h12.703v22.805c0 9.706 7.896 17.602 17.602 17.602h7.652v117.255c0 25.665-20.879 46.544-46.543 46.544-25.665 0-46.544-20.879-46.544-46.544v-81.672c0-4.142-3.358-7.5-7.5-7.5s-7.5 3.358-7.5 7.5v81.672c0 33.936 27.608 61.544 61.544 61.544 33.935 0 61.543-27.608 61.543-61.544v-117.255h15.305v117.255c0 42.375-34.474 76.849-76.849 76.849s-76.849-34.474-76.849-76.849v-186.375c0-30.872-25.116-55.988-55.988-55.988s-55.988 25.116-55.988 55.988v275.774c0 4.142 3.358 7.5 7.5 7.5s7.5-3.358 7.5-7.5v-275.774c0-22.601 18.387-40.988 40.988-40.988s40.988 18.387 40.988 40.988v186.375c0 50.646 41.203 91.849 91.849 91.849s91.849-41.203 91.849-91.849v-117.255h7.652c9.706 0 17.602-7.896 17.602-17.602v-22.805h12.703c15.275 0 27.703-12.428 27.703-27.703v-21.571c0-4.142-3.358-7.5-7.5-7.5s-7.5 3.358-7.5 7.5v21.571c0 7.004-5.699 12.703-12.703 12.703h-121.22c-7.005 0-12.704-5.699-12.704-12.703v-83.415h146.626v26.822c0 4.142 3.358 7.5 7.5 7.5s7.5-3.358 7.5-7.5v-27.286c5.804-1.535 10.102-6.817 10.102-13.097v-28.285c0-7.477-6.083-13.56-13.561-13.56zm-51.947 189.329c0 1.435-1.167 2.602-2.602 2.602h-60.61c-1.435 0-2.602-1.167-2.602-2.602v-22.805h65.813v22.805zm9.949-257.592c0-4.22 3.433-7.652 7.652-7.652s7.652 3.433 7.652 7.652v68.262h-15.305v-68.262zm-101.016 0c0-4.22 3.433-7.652 7.652-7.652s7.652 3.433 7.652 7.652v68.262h-15.305v-68.262zm-25.254 83.263h166.83v25.407h-166.83z"/><path d="m148.923 157.433c39.311 0 71.292 31.981 71.292 71.292v69.664c0 4.142 3.358 7.5 7.5 7.5s7.5-3.358 7.5-7.5v-69.664c0-47.582-38.71-86.292-86.292-86.292s-86.293 38.71-86.293 86.292v72.239c0 4.142 3.358 7.5 7.5 7.5s7.5-3.358 7.5-7.5v-72.239c0-39.31 31.982-71.292 71.293-71.292z"/><path d="m70.13 328.5c-4.142 0-7.5 3.358-7.5 7.5v168.5c0 4.142 3.358 7.5 7.5 7.5s7.5-3.358 7.5-7.5v-168.5c0-4.142-3.358-7.5-7.5-7.5z"/></g></g></svg>