<?xml version="1.0" encoding="iso-8859-1"?>
<!-- Generator: Adobe Illustrator 19.0.0, SVG Export Plug-In . SVG Version: 6.00 Build 0)  -->
<svg version="1.1" id="Capa_1" xmlns="http://www.w3.org/2000/svg" xmlns:xlink="http://www.w3.org/1999/xlink" x="0px" y="0px"
	 viewBox="0 0 511.999 511.999" style="enable-background:new 0 0 511.999 511.999;" xml:space="preserve">
<g>
	<path style="fill:#FFC766;" d="M22.78,101.344h392.671V30.538c0-11.295-9.243-20.538-20.537-20.538H43.318
		C32.024,10,22.78,19.243,22.78,30.538V101.344z"/>
	<path style="fill:#F0F0F0;" d="M415.451,101.344H22.78v37.467V481.46c0,11.296,8.217,20.538,18.256,20.538
		c106.993,0,593.858,0,193.649,0V455.7v-23.876c-5.123,0.596-10.331,0.912-15.614,0.912c-73.795,0-133.619-59.823-133.619-133.619
		s59.824-133.619,133.619-133.619c74.184,0,134.097,60.372,133.609,134.543c10.008-6.948,16.56-18.523,16.56-31.629h46.211V101.344z
		"/>
	<path style="fill:#D8D8E7;" d="M352.681,300.041c0.487-74.171-59.426-134.543-133.609-134.543
		c-73.795,0-133.619,59.823-133.619,133.619s59.824,133.619,133.619,133.619c5.283,0,10.491-0.316,15.614-0.912v-48.362
		c-5.063,0.932-10.281,1.423-15.614,1.423c-47.367,0-85.767-38.399-85.767-85.768s38.399-85.767,85.767-85.767
		c46.598,0,84.516,37.161,85.735,83.466c6.843,6.257,15.954,10.073,25.956,10.073C338.908,306.89,346.462,304.358,352.681,300.041z"
		/>
	<path style="fill:#88E5FF;" d="M304.807,296.816c-1.22-46.305-39.138-83.466-85.735-83.466c-47.367,0-85.767,38.398-85.767,85.767
		s38.399,85.768,85.767,85.768c5.333,0,10.551-0.491,15.614-1.423v-20.961l-28.558,14.609l-38.149-74.572l66.707-34.126h57.601
		C292.286,279.66,297.112,289.78,304.807,296.816z"/>
	<path style="fill:#00BAF7;" d="M234.685,268.412h57.601c0,21.251,17.227,38.478,38.477,38.478
		c21.251,0,38.478-17.227,38.478-38.478h57.602l62.375,31.911l-38.149,74.572L426.843,362.5v139.498H234.685V362.501l-28.558,14.609
		l-38.149-74.572L234.685,268.412z"/>
</g>
<path d="M294.52,55.671h0.454c5.522,0,10-4.477,10-10s-4.478-10-10-10h-0.454c-5.522,0-10,4.477-10,10S288.998,55.671,294.52,55.671
	z"/>
<path d="M325.89,55.671h45.909c5.522,0,10-4.477,10-10s-4.478-10-10-10H325.89c-5.522,0-10,4.477-10,10
	S320.367,55.671,325.89,55.671z"/>
<path d="M254.518,55.671h0.455c5.522,0,10-4.477,10-10s-4.478-10-10-10h-0.455c-5.523,0-10,4.477-10,10
	C244.518,51.194,248.996,55.671,254.518,55.671z"/>
<path d="M493.771,291.42l-62.375-31.911c-1.41-0.721-2.971-1.097-4.555-1.097h-1.391V30.538C425.451,13.699,411.752,0,394.914,0
	H43.318C26.479,0,12.78,13.699,12.78,30.538v450.923c0,16.839,12.675,30.538,28.256,30.538h385.806c5.522,0,10-4.477,10-10V378.85
	l9.671,4.948c2.36,1.208,5.107,1.429,7.629,0.613c2.524-0.815,4.62-2.6,5.828-4.961l38.149-74.572
	C500.635,299.961,498.688,293.936,493.771,291.42z M43.318,20h351.596c5.811,0,10.537,4.727,10.537,10.538v60.807H32.78V30.538
	C32.78,24.727,37.508,20,43.318,20z M32.78,481.461v-332.65h35.91c5.523,0,10-4.477,10-10s-4.477-10-10-10H32.78v-17.467h372.671
	v147.068H369.24c-5.312,0-9.646,4.145-9.969,9.376c-5.809-26.25-18.913-50.367-38.327-69.909
	c-27.15-27.331-63.33-42.382-101.873-42.382c-79.192,0-143.619,64.427-143.619,143.619s64.427,143.619,143.619,143.619
	c1.861,0,3.736-0.051,5.614-0.125v49.388H41.036C36.561,491.999,32.78,487.173,32.78,481.461z M159.076,307.092l31.908,62.373
	c-27.908-11.184-47.679-38.492-47.679-70.348c0-41.778,33.989-75.767,75.767-75.767c27.087,0,50.695,13.879,64.081,35.062h-48.467
	c-1.583,0-3.144,0.376-4.554,1.097l-66.708,34.126C158.507,296.151,156.56,302.176,159.076,307.092z M314.562,291.814
	c-1.749-23.248-11.808-44.848-28.624-61.253c-17.987-17.547-41.734-27.21-66.867-27.21c-52.806,0-95.767,42.961-95.767,95.767
	c0,52.807,42.96,95.768,95.767,95.768c1.871,0,3.743-0.075,5.614-0.184v27.894c-1.879,0.086-3.755,0.142-5.614,0.142
	c-68.164,0-123.619-55.456-123.619-123.619S150.908,175.5,219.071,175.5c33.176,0,64.316,12.955,87.685,36.478
	c22.051,22.196,34.646,51.25,35.829,82.334c-3.604,1.652-7.605,2.581-11.822,2.581C324.747,296.89,319.165,295.01,314.562,291.814z
	 M446.72,361.438l-15.323-7.839c-3.1-1.585-6.802-1.445-9.772,0.372c-2.971,1.817-4.782,5.048-4.782,8.531V492H244.685v-26.3h66.223
	c5.522,0,10-4.477,10-10s-4.478-10-10-10h-66.223v-83.199c0-3.482-1.811-6.714-4.782-8.531c-2.971-1.817-6.673-1.957-9.773-0.372
	l-19.655,10.055l-29.041-56.767l55.659-28.474h46.229c2.072,9.838,7.143,18.581,14.198,25.241c0.362,0.385,0.747,0.747,1.165,1.07
	c8.553,7.565,19.786,12.167,32.076,12.167c10.043,0,19.379-3.076,27.126-8.327c0.401-0.246,0.789-0.511,1.15-0.809
	c9.635-6.944,16.634-17.327,19.164-29.341h46.229l51.327,26.259L446.72,361.438z"/>
<path d="M99.604,148.811h0.455c5.523,0,10-4.477,10-10s-4.477-10-10-10h-0.455c-5.523,0-10,4.477-10,10
	C89.604,144.335,94.081,148.811,99.604,148.811z"/>
<path d="M341.965,445.7h-0.908c-5.522,0-10,4.477-10,10s4.478,10,10,10h0.908c5.523,0,10-4.477,10-10S347.487,445.7,341.965,445.7z"
	/>
<g>
</g>
<g>
</g>
<g>
</g>
<g>
</g>
<g>
</g>
<g>
</g>
<g>
</g>
<g>
</g>
<g>
</g>
<g>
</g>
<g>
</g>
<g>
</g>
<g>
</g>
<g>
</g>
<g>
</g>
</svg>
